ffmpeg started on 2025-06-27 at 12:13:10
Report written to "D:\Convert\FFMetrics\reports\ssim_report-6.txt"
Log level: 32
Command line:
ffmpeg -hide_banner -nostdin -i "G:\\\xc0\xed\xe8\xec\xe5\\[\xd2\xee\xef]\\\xcf\xf0\xee\xe4\xe5\xeb\xea\xe8 \xd1\xe0\xea\xf3\xf0\xfb\\Bonus\\Menu\\Sakura Trick TV Menu 3_HEVC.mkv" -i "G:\\\xc0\xed\xe8\xec\xe5\\[\xd2\xee\xef]\\\xcf\xf0\xee\xe4\xe5\xeb\xea\xe8 \xd1\xe0\xea\xf3\xf0\xfb\\Bonus\\Menu\\Sakura Trick TV Menu 3.mkv" -lavfi "[0:v]settb=AVTB,setpts=PTS-STARTPTS,format=pix_fmts=yuv420p10,fps=24000/1001,scale=1920:1080:flags=bicubic[main];[1:v]settb=AVTB,setpts=PTS-STARTPTS,format=pix_fmts=yuv420p10,fps=24000/1001,scale=1920:1080:flags=bicubic[ref];[main][ref]ssim=eof_action=endall:stats_file='D\\:/Convert/FFMetrics/logs/ssim_logfile-6.txt'" -f null -
Input #0, matroska,webm, from 'G:\Аниме\[Топ]\Проделки Сакуры\Bonus\Menu\Sakura Trick TV Menu 3_HEVC.mkv':
  Metadata:
    title           : Sakura Trick TV Menu 3
    ENCODER         : Lavf61.7.100
  Duration: 00:01:43.96, start: -0.021000, bitrate: 586 kb/s
  Stream #0:0(jpn): Video: hevc (Main 10), yuv420p10le(tv, bt709, progressive), 1920x1080 [SAR 1:1 DAR 16:9], 23.98 fps, 23.98 tbr, 1k tbn (default)
      Metadata:
        title           : [VCB & Hakugetsu & DMG]
        ENCODER         : Lavc61.19.100 libx265
        BPS             : 386260
        DURATION        : 00:01:43.936708333
        NUMBER_OF_FRAMES: 2492
        NUMBER_OF_BYTES : 5018290
        _STATISTICS_WRITING_APP: mkvpropedit v66.0.0 ('Josie') 64-bit
        _STATISTICS_WRITING_DATE_UTC: 2025-06-27 08:38:19
        _STATISTICS_TAGS: BPS DURATION NUMBER_OF_FRAMES NUMBER_OF_BYTES
  Stream #0:1(jpn): Audio: aac (LC), 48000 Hz, stereo, fltp (default)
      Metadata:
        title           : [Original]
        ENCODER         : Lavc61.19.100 aac
        BPS             : 196361
        DURATION        : 00:01:43.957000000
        NUMBER_OF_FRAMES: 4874
        NUMBER_OF_BYTES : 2551644
        _STATISTICS_WRITING_APP: mkvpropedit v66.0.0 ('Josie') 64-bit
        _STATISTICS_WRITING_DATE_UTC: 2025-06-27 08:38:19
        _STATISTICS_TAGS: BPS DURATION NUMBER_OF_FRAMES NUMBER_OF_BYTES
Input #1, matroska,webm, from 'G:\Аниме\[Топ]\Проделки Сакуры\Bonus\Menu\Sakura Trick TV Menu 3.mkv':
  Metadata:
    title           : Sakura Trick TV Menu 3
    encoder         : libebml v1.3.6 + libmatroska v1.4.9
    creation_time   : 2018-07-04T17:49:38.000000Z
  Duration: 00:01:43.94, start: 0.000000, bitrate: 1144 kb/s
  Stream #1:0(jpn): Video: h264 (High 10), yuv420p10le(tv, unknown/bt709/unknown, progressive), 1920x1080 [SAR 1:1 DAR 16:9], 23.98 fps, 23.98 tbr, 1k tbn (default)
      Metadata:
        title           : [VCB & Hakugetsu & DMG]
  Stream #1:1(jpn): Audio: flac, 48000 Hz, stereo, s16 (default)
      Metadata:
        title           : [Original]
Stream mapping:
  Stream #0:0 (hevc) -> settb:default
  Stream #1:0 (h264) -> settb:default
  ssim:default -> Stream #0:0 (wrapped_avframe)
  Stream #0:1 -> #0:1 (aac (native) -> pcm_s16le (native))
Output #0, null, to 'pipe:':
  Metadata:
    title           : Sakura Trick TV Menu 3
    encoder         : Lavf61.7.100
  Stream #0:0: Video: wrapped_avframe, yuv420p10le(tv, bt709, progressive), 1920x1080 [SAR 1:1 DAR 16:9], q=2-31, 200 kb/s, 23.98 fps, 23.98 tbn
      Metadata:
        encoder         : Lavc61.19.100 wrapped_avframe
  Stream #0:1(jpn): Audio: pcm_s16le, 48000 Hz, stereo, s16, 1536 kb/s (default)
      Metadata:
        title           : [Original]
        _STATISTICS_TAGS: BPS DURATION NUMBER_OF_FRAMES NUMBER_OF_BYTES
        BPS             : 196361
        DURATION        : 00:01:43.957000000
        NUMBER_OF_FRAMES: 4874
        NUMBER_OF_BYTES : 2551644
        _STATISTICS_WRITING_APP: mkvpropedit v66.0.0 ('Josie') 64-bit
        _STATISTICS_WRITING_DATE_UTC: 2025-06-27 08:38:19
        encoder         : Lavc61.19.100 pcm_s16le
frame=    9 fps=0.0 q=-0.0 size=N/A time=00:00:00.37 bitrate=N/A speed=0.709x    frame=   38 fps= 36 q=-0.0 size=N/A time=00:00:01.58 bitrate=N/A speed=1.52x    frame=   59 fps= 38 q=-0.0 size=N/A time=00:00:02.46 bitrate=N/A speed=1.59x    frame=   82 fps= 40 q=-0.0 size=N/A time=00:00:03.42 bitrate=N/A speed=1.65x    frame=  104 fps= 40 q=-0.0 size=N/A time=00:00:04.33 bitrate=N/A speed=1.68x    frame=  119 fps= 38 q=-0.0 size=N/A time=00:00:04.96 bitrate=N/A speed= 1.6x    frame=  146 fps= 40 q=-0.0 size=N/A time=00:00:06.08 bitrate=N/A speed=1.68x    frame=  171 fps= 41 q=-0.0 size=N/A time=00:00:07.13 bitrate=N/A speed=1.73x    frame=  194 fps= 42 q=-0.0 size=N/A time=00:00:08.09 bitrate=N/A speed=1.74x    frame=  209 fps= 40 q=-0.0 size=N/A time=00:00:08.71 bitrate=N/A speed=1.69x    frame=  238 fps= 42 q=-0.0 size=N/A time=00:00:09.92 bitrate=N/A speed=1.75x    frame=  260 fps= 42 q=-0.0 size=N/A time=00:00:10.84 bitrate=N/A speed=1.75x    frame=  276 fps= 41 q=-0.0 size=N/A time=00:00:11.51 bitrate=N/A speed=1.72x    frame=  305 fps= 42 q=-0.0 size=N/A time=00:00:12.72 bitrate=N/A speed=1.76x    frame=  327 fps= 42 q=-0.0 size=N/A time=00:00:13.63 bitrate=N/A speed=1.76x    frame=  349 fps= 42 q=-0.0 size=N/A time=00:00:14.55 bitrate=N/A speed=1.76x    frame=  366 fps= 42 q=-0.0 size=N/A time=00:00:15.26 bitrate=N/A speed=1.74x    frame=  393 fps= 42 q=-0.0 size=N/A time=00:00:16.39 bitrate=N/A speed=1.76x    frame=  418 fps= 43 q=-0.0 size=N/A time=00:00:17.43 bitrate=N/A speed=1.78x    frame=  441 fps= 43 q=-0.0 size=N/A time=00:00:18.39 bitrate=N/A speed=1.78x    frame=  456 fps= 42 q=-0.0 size=N/A time=00:00:19.01 bitrate=N/A speed=1.76x    frame=  483 fps= 43 q=-0.0 size=N/A time=00:00:20.14 bitrate=N/A speed=1.78x    frame=  508 fps= 43 q=-0.0 size=N/A time=00:00:21.18 bitrate=N/A speed=1.78x    frame=  531 fps= 43 q=-0.0 size=N/A time=00:00:22.14 bitrate=N/A speed=1.79x    frame=  546 fps= 42 q=-0.0 size=N/A time=00:00:22.77 bitrate=N/A speed=1.76x    frame=  573 fps= 43 q=-0.0 size=N/A time=00:00:23.89 bitrate=N/A speed=1.78x    frame=  599 fps= 43 q=-0.0 size=N/A time=00:00:24.98 bitrate=N/A speed=1.79x    frame=  622 fps= 43 q=-0.0 size=N/A time=00:00:25.94 bitrate=N/A speed= 1.8x    frame=  645 fps= 43 q=-0.0 size=N/A time=00:00:26.90 bitrate=N/A speed= 1.8x    frame=  662 fps= 43 q=-0.0 size=N/A time=00:00:27.61 bitrate=N/A speed=1.78x    frame=  690 fps= 43 q=-0.0 size=N/A time=00:00:28.77 bitrate=N/A speed= 1.8x    frame=  713 fps= 43 q=-0.0 size=N/A time=00:00:29.73 bitrate=N/A speed= 1.8x    frame=  729 fps= 43 q=-0.0 size=N/A time=00:00:30.40 bitrate=N/A speed=1.79x    frame=  759 fps= 43 q=-0.0 size=N/A time=00:00:31.65 bitrate=N/A speed=1.81x    frame=  782 fps= 43 q=-0.0 size=N/A time=00:00:32.61 bitrate=N/A speed=1.81x    frame=  805 fps= 43 q=-0.0 size=N/A time=00:00:33.57 bitrate=N/A speed=1.81x    frame=  823 fps= 43 q=-0.0 size=N/A time=00:00:34.32 bitrate=N/A speed= 1.8x    frame=  850 fps= 43 q=-0.0 size=N/A time=00:00:35.45 bitrate=N/A speed=1.81x    frame=  862 fps= 43 q=-0.0 size=N/A time=00:00:35.95 bitrate=N/A speed=1.79x    frame=  893 fps= 43 q=-0.0 size=N/A time=00:00:37.24 bitrate=N/A speed=1.81x    frame=  919 fps= 43 q=-0.0 size=N/A time=00:00:38.32 bitrate=N/A speed=1.81x    frame=  941 fps= 43 q=-0.0 size=N/A time=00:00:39.24 bitrate=N/A speed=1.81x    frame=  958 fps= 43 q=-0.0 size=N/A time=00:00:39.95 bitrate=N/A speed= 1.8x    frame=  987 fps= 43 q=-0.0 size=N/A time=00:00:41.16 bitrate=N/A speed=1.81x    frame= 1009 fps= 43 q=-0.0 size=N/A time=00:00:42.08 bitrate=N/A speed=1.81x    frame= 1033 fps= 44 q=-0.0 size=N/A time=00:00:43.08 bitrate=N/A speed=1.82x    frame= 1056 fps= 44 q=-0.0 size=N/A time=00:00:44.04 bitrate=N/A speed=1.82x    frame= 1078 fps= 44 q=-0.0 size=N/A time=00:00:44.96 bitrate=N/A speed=1.82x    frame= 1102 fps= 44 q=-0.0 size=N/A time=00:00:45.96 bitrate=N/A speed=1.82x    frame= 1125 fps= 44 q=-0.0 size=N/A time=00:00:46.92 bitrate=N/A speed=1.82x    frame= 1143 fps= 43 q=-0.0 size=N/A time=00:00:47.67 bitrate=N/A speed=1.81x    frame= 1170 fps= 44 q=-0.0 size=N/A time=00:00:48.79 bitrate=N/A speed=1.82x    frame= 1175 fps= 43 q=-0.0 size=N/A time=00:00:49.00 bitrate=N/A speed=1.79x    frame= 1200 fps= 43 q=-0.0 size=N/A time=00:00:50.05 bitrate=N/A speed= 1.8x    frame= 1235 fps= 44 q=-0.0 size=N/A time=00:00:51.50 bitrate=N/A speed=1.82x    frame= 1259 fps= 44 q=-0.0 size=N/A time=00:00:52.51 bitrate=N/A speed=1.82x    frame= 1274 fps= 43 q=-0.0 size=N/A time=00:00:53.13 bitrate=N/A speed=1.81x    frame= 1305 fps= 44 q=-0.0 size=N/A time=00:00:54.42 bitrate=N/A speed=1.82x    frame= 1327 fps= 44 q=-0.0 size=N/A time=00:00:55.34 bitrate=N/A speed=1.82x    frame= 1344 fps= 43 q=-0.0 size=N/A time=00:00:56.05 bitrate=N/A speed=1.81x    frame= 1368 fps= 43 q=-0.0 size=N/A time=00:00:57.05 bitrate=N/A speed=1.81x    frame= 1395 fps= 44 q=-0.0 size=N/A time=00:00:58.18 bitrate=N/A speed=1.82x    frame= 1413 fps= 43 q=-0.0 size=N/A time=00:00:58.93 bitrate=N/A speed=1.81x    frame= 1437 fps= 44 q=-0.0 size=N/A time=00:00:59.93 bitrate=N/A speed=1.81x    frame= 1465 fps= 44 q=-0.0 size=N/A time=00:01:01.10 bitrate=N/A speed=1.82x    frame= 1488 fps= 44 q=-0.0 size=N/A time=00:01:02.06 bitrate=N/A speed=1.82x    frame= 1503 fps= 43 q=-0.0 size=N/A time=00:01:02.68 bitrate=N/A speed=1.81x    frame= 1533 fps= 44 q=-0.0 size=N/A time=00:01:03.93 bitrate=N/A speed=1.82x    frame= 1556 fps= 44 q=-0.0 size=N/A time=00:01:04.89 bitrate=N/A speed=1.82x    frame= 1574 fps= 44 q=-0.0 size=N/A time=00:01:05.64 bitrate=N/A speed=1.82x    frame= 1600 fps= 44 q=-0.0 size=N/A time=00:01:06.73 bitrate=N/A speed=1.82x    frame= 1624 fps= 44 q=-0.0 size=N/A time=00:01:07.73 bitrate=N/A speed=1.82x    frame= 1646 fps= 44 q=-0.0 size=N/A time=00:01:08.65 bitrate=N/A speed=1.82x    frame= 1670 fps= 44 q=-0.0 size=N/A time=00:01:09.65 bitrate=N/A speed=1.82x    frame= 1692 fps= 44 q=-0.0 size=N/A time=00:01:10.57 bitrate=N/A speed=1.82x    frame= 1704 fps= 43 q=-0.0 size=N/A time=00:01:11.07 bitrate=N/A speed=1.81x    frame= 1738 fps= 44 q=-0.0 size=N/A time=00:01:12.48 bitrate=N/A speed=1.83x    frame= 1759 fps= 44 q=-0.0 size=N/A time=00:01:13.36 bitrate=N/A speed=1.82x    frame= 1783 fps= 44 q=-0.0 size=N/A time=00:01:14.36 bitrate=N/A speed=1.82x    frame= 1807 fps= 44 q=-0.0 size=N/A time=00:01:15.36 bitrate=N/A speed=1.83x    frame= 1829 fps= 44 q=-0.0 size=N/A time=00:01:16.28 bitrate=N/A speed=1.83x    frame= 1851 fps= 44 q=-0.0 size=N/A time=00:01:17.20 bitrate=N/A speed=1.83x    frame= 1874 fps= 44 q=-0.0 size=N/A time=00:01:18.16 bitrate=N/A speed=1.83x    frame= 1894 fps= 44 q=-0.0 size=N/A time=00:01:18.99 bitrate=N/A speed=1.82x    frame= 1918 fps= 44 q=-0.0 size=N/A time=00:01:19.99 bitrate=N/A speed=1.82x    frame= 1942 fps= 44 q=-0.0 size=N/A time=00:01:20.99 bitrate=N/A speed=1.83x    frame= 1965 fps= 44 q=-0.0 size=N/A time=00:01:21.95 bitrate=N/A speed=1.83x    frame= 1986 fps= 44 q=-0.0 size=N/A time=00:01:22.83 bitrate=N/A speed=1.82x    frame= 2010 fps= 44 q=-0.0 size=N/A time=00:01:23.83 bitrate=N/A speed=1.83x    frame= 2033 fps= 44 q=-0.0 size=N/A time=00:01:24.79 bitrate=N/A speed=1.83x    frame= 2050 fps= 44 q=-0.0 size=N/A time=00:01:25.50 bitrate=N/A speed=1.82x    frame= 2078 fps= 44 q=-0.0 size=N/A time=00:01:26.66 bitrate=N/A speed=1.83x    frame= 2101 fps= 44 q=-0.0 size=N/A time=00:01:27.62 bitrate=N/A speed=1.83x    frame= 2122 fps= 44 q=-0.0 size=N/A time=00:01:28.50 bitrate=N/A speed=1.83x    frame= 2146 fps= 44 q=-0.0 size=N/A time=00:01:29.50 bitrate=N/A speed=1.83x    frame= 2169 fps= 44 q=-0.0 size=N/A time=00:01:30.46 bitrate=N/A speed=1.83x    frame= 2184 fps= 44 q=-0.0 size=N/A time=00:01:31.09 bitrate=N/A speed=1.82x    frame= 2214 fps= 44 q=-0.0 size=N/A time=00:01:32.34 bitrate=N/A speed=1.83x    frame= 2233 fps= 44 q=-0.0 size=N/A time=00:01:33.13 bitrate=N/A speed=1.82x    frame= 2255 fps= 44 q=-0.0 size=N/A time=00:01:34.05 bitrate=N/A speed=1.82x    frame= 2278 fps= 44 q=-0.0 size=N/A time=00:01:35.01 bitrate=N/A speed=1.82x    frame= 2306 fps= 44 q=-0.0 size=N/A time=00:01:36.17 bitrate=N/A speed=1.83x    frame= 2329 fps= 44 q=-0.0 size=N/A time=00:01:37.13 bitrate=N/A speed=1.83x    frame= 2351 fps= 44 q=-0.0 size=N/A time=00:01:38.05 bitrate=N/A speed=1.83x    frame= 2368 fps= 44 q=-0.0 size=N/A time=00:01:38.76 bitrate=N/A speed=1.82x    frame= 2395 fps= 44 q=-0.0 size=N/A time=00:01:39.89 bitrate=N/A speed=1.83x    frame= 2419 fps= 44 q=-0.0 size=N/A time=00:01:40.89 bitrate=N/A speed=1.83x    frame= 2442 fps= 44 q=-0.0 size=N/A time=00:01:41.85 bitrate=N/A speed=1.83x    frame= 2465 fps= 44 q=-0.0 size=N/A time=00:01:42.81 bitrate=N/A speed=1.83x    frame= 2489 fps= 44 q=-0.0 size=N/A time=00:01:43.81 bitrate=N/A speed=1.83x    [Parsed_ssim_10 @ 00000231f70d3d00] SSIM Y:0.996790 (24.934299) U:0.994293 (22.435672) V:0.995133 (23.127715) All:0.996097 (24.086407)
[out#0/null @ 00000231f6af4300] video:1071KiB audio:19496KiB subtitle:0KiB other streams:0KiB global headers:0KiB muxing overhead: unknown
frame= 2492 fps= 44 q=-0.0 Lsize=N/A time=00:01:43.93 bitrate=N/A speed=1.83x    
